<svg xmlns="http://www.w3.org/2000/svg" width="64" height="64" viewBox="0 0 64 64" fill="none">
  <defs>
    <linearGradient id="shieldGrad" x1="8" y1="4" x2="56" y2="60" gradientUnits="userSpaceOnUse">
      <stop offset="0%" stop-color="#ef4444"/>
      <stop offset="100%" stop-color="#f97316"/>
    </linearGradient>
    <linearGradient id="innerGlow" x1="32" y1="10" x2="32" y2="54" gradientUnits="userSpaceOnUse">
      <stop offset="0%" stop-color="#fbbf24" stop-opacity="0.3"/>
      <stop offset="100%" stop-color="#ef4444" stop-opacity="0.05"/>
    </linearGradient>
  </defs>
  <!-- Shield body -->
  <path d="M32 4L8 16v16c0 14.4 10.24 27.84 24 32 13.76-4.16 24-17.6 24-32V16L32 4z" fill="url(#shieldGrad)"/>
  <!-- Inner highlight -->
  <path d="M32 8L12 18v14c0 12.8 8.53 24.72 20 28 11.47-3.28 20-15.2 20-28V18L32 8z" fill="url(#innerGlow)"/>
  <!-- 3D text -->
  <text x="32" y="42" text-anchor="middle" font-family="Arial Black, Arial, sans-serif" font-weight="900" font-size="22" fill="white" letter-spacing="-1">3D</text>
  <!-- Small building icon at top -->
  <rect x="27" y="14" width="10" height="12" rx="1" fill="white" opacity="0.9"/>
  <rect x="29" y="16" width="2.5" height="3" rx="0.5" fill="#ef4444" opacity="0.8"/>
  <rect x="33" y="16" width="2.5" height="3" rx="0.5" fill="#ef4444" opacity="0.8"/>
  <rect x="29" y="21" width="2.5" height="3" rx="0.5" fill="#ef4444" opacity="0.8"/>
  <rect x="33" y="21" width="2.5" height="3" rx="0.5" fill="#ef4444" opacity="0.8"/>
</svg>